<svg width="63" height="57" viewBox="0 0 63 57" fill="none" xmlns="http://www.w3.org/2000/svg">
<path d="M50.25 0.375H12.75V12.875H50.25M53.375 28.5C52.5462 28.5 51.7513 28.1708 51.1653 27.5847C50.5792 26.9987 50.25 26.2038 50.25 25.375C50.25 24.5462 50.5792 23.7513 51.1653 23.1653C51.7513 22.5792 52.5462 22.25 53.375 22.25C54.2038 22.25 54.9987 22.5792 55.5847 23.1653C56.1708 23.7513 56.5 24.5462 56.5 25.375C56.5 26.2038 56.1708 26.9987 55.5847 27.5847C54.9987 28.1708 54.2038 28.5 53.375 28.5ZM44 50.375H19V34.75H44M53.375 16H9.625C7.1386 16 4.75403 16.9877 2.99587 18.7459C1.23772 20.504 0.25 22.8886 0.25 25.375V44.125H12.75V56.625H50.25V44.125H62.75V25.375C62.75 22.8886 61.7623 20.504 60.0041 18.7459C58.246 16.9877 55.8614 16 53.375 16Z" fill="#00C756"/>
</svg>
