<svg width="53" height="53" viewBox="0 0 53 53" fill="none" xmlns="http://www.w3.org/2000/svg">
<path d="M52.8592 27.2827C53.2154 28.0663 52.788 29.4911 52.788 29.5623C51.5769 33.4091 47.089 34.4776 41.96 34.2639C40.179 30.8446 38.2557 27.5677 36.4747 24.1483C40.3215 21.94 43.9546 19.5891 47.8014 17.3096C49.3686 20.6577 52.4318 26.4991 52.8592 27.2827Z" fill="#00C756"/>
<path d="M51.9306 32.0559C49.7223 36.1876 47.4427 41.1742 44.807 44.8785C42.8123 47.728 39.0368 48.2979 33.8365 47.9417C33.694 49.1528 33.8365 50.6487 33.7652 52.0022C31.7706 48.5829 29.776 45.1635 27.8526 41.6729C29.7047 38.0398 31.7706 34.6204 33.694 31.0586C33.8365 32.1984 33.694 33.6231 33.7652 34.9054C40.2478 35.3328 48.9387 36.1876 51.9306 32.0559ZM23.7209 35.0479V48.0842C18.2356 47.7992 12.038 48.8678 9.04606 46.232C7.19391 44.5936 5.98288 41.4592 4.77185 39.2508C3.34712 36.6151 1.92238 34.2643 0.782593 31.9134C1.85115 33.4806 3.7033 34.2643 6.05412 34.6917C6.4103 34.7629 6.69525 34.7629 7.05143 34.8341C8.26246 35.0479 9.47348 35.0479 10.6845 35.1191H13.3203C16.1697 35.0479 18.948 35.0479 21.7975 35.0479H23.7209Z" fill="#00C756"/>
<path d="M19.0202 28.5653C17.8092 27.9242 16.7407 27.1405 15.5296 26.5707C13.8199 29.0639 12.5377 31.9847 10.6855 34.4067C5.34276 34.6917 0.926079 33.4806 0 29.1352C0.641131 25.6446 2.707 22.5814 3.98926 19.7319C2.84947 18.9483 1.3535 18.2359 0.356184 17.4523H12.8226L19.0202 28.5653ZM15.1022 1.56653C15.5296 0.996635 17.0968 0.569214 17.0968 0.569214C21.0861 -0.214391 24.0781 3.27621 26.2864 7.97784C24.0781 11.1835 22.0834 14.3892 19.9463 17.5948C16.1708 15.244 12.3952 13.1069 8.69089 10.7561C10.9705 7.6929 14.6748 2.13642 15.1022 1.56653Z" fill="#00C756"/>
<path d="M19.7301 0.0712368C24.3605 0.0712368 29.8457 -0.21371 34.3337 0.356184C37.8243 0.783605 40.0326 3.84679 42.2409 8.61966C43.3807 8.19224 44.663 7.33739 45.8028 6.7675C43.7369 10.1156 41.671 13.535 39.4627 16.8831C35.4022 16.9544 31.4129 16.7407 27.3524 16.7407C28.2785 16.0995 29.632 15.5296 30.7006 14.8885C28.0648 8.97584 24.7167 0.854842 19.7301 0.0712368ZM23.7906 28.1385L33.7638 23.152C33.7638 23.152 31.128 16.5982 24.0755 19.2339C24.0755 19.2339 17.7355 21.7985 21.1548 29.2071C21.1548 29.2071 22.7933 32.5552 27.21 32.6977C27.21 32.6977 30.6293 32.8402 32.624 30.4181L30.3444 28.7084C30.2732 28.7084 26.7825 31.7004 23.7906 28.1385ZM25.2153 21.7985C25.2153 21.7985 27.4949 20.6587 29.8457 22.2971L23.0782 25.7165C23.0782 25.7877 22.9358 22.9383 25.2153 21.7985Z" fill="#00C756"/>
</svg>
