<svg width="64" height="64" viewBox="0 0 64 64" fill="none" xmlns="http://www.w3.org/2000/svg">
<g clip-path="url(#clip0_16_3864)">
<path d="M37.0561 25.0511H26.9441V26.9262H37.0561V25.0511Z" fill="white"/>
<path d="M50.0792 31.2209L49.9392 30.6967L49.4149 30.5569C48.5534 30.327 47.6638 30.2105 46.7704 30.2105C44.0435 30.2105 41.4802 31.272 39.5529 33.1993C37.1149 35.6373 36.0803 39.1667 36.7844 42.5257L34.5629 44.7472V32.2772H36.476C39.0784 32.2772 41.1957 30.16 41.1957 27.5576V19.4434H42.5632V11.2568H39.2637V2.57608C39.2637 1.16007 38.1117 0.00805664 36.6957 0.00805664C35.2797 0.00805664 34.1276 1.16007 34.1276 2.57608V11.2568H29.8733V2.57608C29.8733 1.16007 28.7213 0.00805664 27.3053 0.00805664C25.8893 0.00805664 24.7373 1.16007 24.7373 2.57608V11.2568H21.4378V19.4435H22.8053V27.5577C22.8053 30.1601 24.9226 32.2774 27.525 32.2774H29.4378V50.7893L27.0536 48.405C27.7577 45.046 26.7231 41.5166 24.285 39.0786C22.3578 37.1512 19.7945 36.0898 17.0675 36.0898C16.1742 36.0898 15.2843 36.2063 14.4229 36.4362L13.8987 36.576L13.7588 37.1003C12.8208 40.6156 13.8333 44.3945 16.4012 46.9624C18.3285 48.8897 20.8916 49.9512 23.6187 49.9512C24.3282 49.9512 25.0352 49.8764 25.7277 49.731L29.4377 53.4411V62.1172H24.9696V63.9922H29.4378H34.5629H39.0311V62.1172H34.5629V47.3989L38.1102 43.8516C38.8028 43.997 39.5097 44.0717 40.2193 44.0717C42.9462 44.0717 45.5095 43.0102 47.4368 41.083C50.0047 38.5151 51.0172 34.7361 50.0792 31.2209ZM23.6189 48.076H23.6188C21.3925 48.076 19.3002 47.2095 17.7271 45.6364C16.0458 43.955 15.1823 41.6371 15.3012 39.3042L24.0607 48.0637C23.9137 48.0714 23.7664 48.076 23.6189 48.076ZM25.3851 46.7365L16.6256 37.9771C16.7726 37.9693 16.92 37.9647 17.0673 37.9647C19.2936 37.9647 21.3859 38.8311 22.9592 40.4043C24.6407 42.0858 25.5042 44.4036 25.3851 46.7365ZM36.0025 2.57608C36.0025 2.19395 36.3134 1.88307 36.6955 1.88307C37.0777 1.88307 37.3885 2.19395 37.3885 2.57608V11.2568H36.0025V2.57608ZM26.6122 2.57608C26.6122 2.19395 26.9231 1.88307 27.3052 1.88307C27.6873 1.88307 27.9982 2.19395 27.9982 2.57608V11.2568H26.6122V2.57608ZM23.3125 17.5685V13.1318H40.6882V17.5685H23.3125ZM32.6879 62.117H31.3129V32.2774H32.6879V62.117ZM27.5247 30.4024C25.9562 30.4024 24.68 29.1263 24.68 27.5577V19.4435H39.3207V27.5577C39.3207 29.1262 38.0447 30.4024 36.476 30.4024H27.5247ZM40.8787 34.525C42.4518 32.9519 44.5442 32.0854 46.7704 32.0854C46.9179 32.0854 47.0653 32.09 47.2123 32.0977L38.4528 40.8572C38.3338 38.5243 39.1973 36.2065 40.8787 34.525ZM46.1109 39.7572C44.5377 41.3303 42.4453 42.1968 40.2192 42.1968C40.0717 42.1968 39.9244 42.1922 39.7773 42.1845L48.5368 33.425C48.6559 35.758 47.7924 38.0758 46.1109 39.7572Z" fill="white"/>
<path d="M64.0001 31.0537H57.4219V32.9287H64.0001V31.0537Z" fill="white"/>
<path d="M56.5966 15.0578L51.9451 19.7094L53.2709 21.0352L57.9224 16.3837L56.5966 15.0578Z" fill="white"/>
<path d="M53.2719 42.9488L51.946 44.2747L56.5976 48.9262L57.9234 47.6004L53.2719 42.9488Z" fill="white"/>
<path d="M6.57819 31.0537H0V32.9287H6.57819V31.0537Z" fill="white"/>
<path d="M7.40249 15.058L6.07666 16.3838L10.7281 21.0352L12.0539 19.7094L7.40249 15.058Z" fill="white"/>
<path d="M10.7282 42.9493L6.07666 47.6008L7.40249 48.9267L12.054 44.2751L10.7282 42.9493Z" fill="white"/>
</g>
<defs>
<clipPath id="clip0_16_3864">
<rect width="64" height="64" fill="white"/>
</clipPath>
</defs>
</svg>
