<svg width="90" height="90" viewBox="0 0 90 90" fill="none" xmlns="http://www.w3.org/2000/svg">
<path d="M7.68719 57.2963L7.78094 57.9262L7.87843 57.9037C8.54478 61.0199 10.0798 63.8836 12.3059 66.1637C14.532 68.4437 17.3582 70.0469 20.4574 70.7877C23.5567 71.5285 26.8024 71.3766 29.8189 70.3496C32.8354 69.3226 35.4996 67.4625 37.503 64.9845C39.5064 62.5065 40.7673 59.5119 41.1397 56.3472C41.5121 53.1825 40.9809 49.977 39.6074 47.1016C38.234 44.2262 36.0744 41.7985 33.3787 40.0993C30.683 38.4001 27.5612 37.4989 24.3747 37.5C23.5384 37.5 22.7359 37.6275 21.9372 37.7437C22.1959 36.8737 22.4622 35.9888 22.8897 35.1938C23.3172 34.0388 23.9847 33.0375 24.6484 32.0288C25.2034 30.9375 26.1822 30.1988 26.9022 29.265C27.6559 28.3575 28.6834 27.7538 29.4972 27C30.2959 26.2125 31.3422 25.8187 32.1747 25.2638C33.0447 24.765 33.8022 24.2137 34.6122 23.9512L36.6334 23.1188L38.4109 22.38L36.5959 15.1087L34.3572 15.6488C33.6409 15.8288 32.7672 16.0388 31.7734 16.29C30.7572 16.4775 29.6734 16.9913 28.4659 17.46C27.2772 17.9963 25.8934 18.3525 24.6109 19.2112C23.3209 20.0287 21.8322 20.7113 20.5197 21.8063C19.2484 22.935 17.7147 23.9138 16.5822 25.3463C15.3447 26.6888 14.1222 28.0987 13.1734 29.7037C12.0747 31.2337 11.3284 32.9138 10.5409 34.575C9.82844 36.2363 9.25468 37.935 8.78593 39.585C7.89719 42.8925 7.49969 46.035 7.34593 48.7238C7.21844 51.4162 7.29343 53.655 7.45093 55.275C7.50363 55.9515 7.58244 56.6258 7.68719 57.2963ZM48.9372 57.2963L49.0309 57.9262L49.1284 57.9037C49.7948 61.0199 51.3298 63.8836 53.5559 66.1637C55.782 68.4437 58.6082 70.0469 61.7074 70.7877C64.8067 71.5285 68.0524 71.3766 71.0689 70.3496C74.0855 69.3226 76.7496 67.4625 78.753 64.9845C80.7564 62.5065 82.0173 59.5119 82.3897 56.3472C82.7621 53.1825 82.2309 49.977 80.8574 47.1016C79.484 44.2262 77.3244 41.7985 74.6287 40.0993C71.933 38.4001 68.8112 37.4989 65.6247 37.5C64.7884 37.5 63.9859 37.6275 63.1872 37.7437C63.4459 36.8737 63.7122 35.9888 64.1397 35.1938C64.5672 34.0388 65.2347 33.0375 65.8984 32.0288C66.4534 30.9375 67.4322 30.1988 68.1522 29.265C68.9059 28.3575 69.9334 27.7538 70.7472 27C71.5459 26.2125 72.5922 25.8187 73.4247 25.2638C74.2947 24.765 75.0522 24.2137 75.8622 23.9512L77.8834 23.1188C79.0122 22.6575 79.6572 22.3875 79.6572 22.3875L77.8422 15.1163L75.6034 15.6562C74.8872 15.8362 74.0134 16.0463 73.0197 16.2975C72.0034 16.485 70.9197 16.9988 69.7122 17.4675C68.5234 18.0038 67.1397 18.36 65.8572 19.2188C64.5672 20.0362 63.0784 20.7187 61.7659 21.8137C60.4947 22.9425 58.9609 23.9212 57.8284 25.3538C56.5909 26.6962 55.3684 28.1063 54.4197 29.7113C53.3209 31.2413 52.5747 32.9213 51.7872 34.5825C51.0747 36.2438 50.5009 37.9425 50.0322 39.5925C49.1434 42.9 48.7459 46.0425 48.5922 48.7312C48.4647 51.4237 48.5397 53.6625 48.6972 55.2825C48.7532 55.9564 48.8332 56.6281 48.9372 57.2963Z" fill="#F1F1F1"/>
</svg>
