<svg width="52" height="52" viewBox="0 0 52 52" fill="none" xmlns="http://www.w3.org/2000/svg">
<path d="M22.0357 36.9258V44.2115C22.0262 44.4853 21.9108 44.7448 21.7137 44.9351C21.5166 45.1254 21.2532 45.2317 20.9792 45.2315H13.3292C12.0714 45.0196 10.9327 44.3597 10.1235 43.3736" stroke="white" stroke-width="3.64286" stroke-linecap="round" stroke-linejoin="round"/>
<path d="M37.8821 23.411L43.2736 19.7682C43.3941 19.715 43.5243 19.6875 43.6561 19.6875C43.7878 19.6875 43.9181 19.715 44.0386 19.7682C44.1793 19.7846 44.3145 19.8324 44.4343 19.9081C44.5541 19.9838 44.6554 20.0853 44.7307 20.2053L48.92 26.471C49.1703 26.9748 49.3006 27.5296 49.3006 28.0921C49.3006 28.6546 49.1703 29.2094 48.92 29.7132M10.1236 43.4103C10.1236 43.4103 6.15286 39.9496 15.3693 30.7332H19.4857L13.3293 20.5696H2L5.09643 24.5403C5.09643 24.5403 3.02 24.9046 3.02 27.7825C4.10911 33.4832 6.54459 38.8413 10.1236 43.4103Z" stroke="white" stroke-width="3.64286" stroke-linecap="round" stroke-linejoin="round"/>
<path d="M16.0249 15.7971L11.1071 13.5385C10.8645 13.4132 10.6776 13.2016 10.5833 12.9454C10.4889 12.6892 10.4938 12.4069 10.5971 12.1542L14.7499 3.84848C15.0274 3.35674 15.4153 2.93622 15.8831 2.62012C16.351 2.30402 16.8859 2.10099 17.4456 2.02706M17.4456 2.02706C17.4456 2.02706 21.9264 2.02706 27.6092 12.9556L24.6585 16.5985H36.8985L41.2335 5.15991L36.1335 6.72634C36.0594 5.93594 35.7731 5.18023 35.3051 4.53903C34.837 3.89783 34.2044 3.39494 33.4742 3.08348C30.9633 2.25225 28.32 1.89405 25.6785 2.02706H17.4456ZM49.0656 29.3485C49.0656 29.3485 47.8999 34.0842 35.8421 32.9913V29.8221L28.7749 39.0749L35.4778 49.3842L35.8421 44.5392C35.8421 44.5392 37.1899 46.1785 39.4849 44.5392C43.3339 39.9199 46.5553 34.8121 49.0656 29.3485Z" stroke="white" stroke-width="3.64286" stroke-linecap="round" stroke-linejoin="round"/>
</svg>
