<svg width="11" height="11" viewBox="0 0 11 11" fill="none" xmlns="http://www.w3.org/2000/svg">
<path d="M4.71735 1.22977L5.22377 0.723354C5.45396 0.516183 5.79925 0.516183 6.00642 0.723354L10.4951 5.18903C10.7023 5.41922 10.7023 5.76451 10.4951 5.97168L6.00642 10.4604C5.79925 10.6676 5.45396 10.6676 5.22377 10.4604L4.71735 9.95396C4.51018 9.72377 4.51018 9.37849 4.71735 9.1483L7.50265 6.50112H0.896205C0.57394 6.50112 0.34375 6.27093 0.34375 5.94866V5.21205C0.34375 4.91281 0.57394 4.6596 0.896205 4.6596H7.50265L4.71735 2.03544C4.51018 1.80525 4.48717 1.45996 4.71735 1.22977Z" fill="#00C756"/>
</svg>
