<svg width="28" height="29" viewBox="0 0 28 29" fill="none" xmlns="http://www.w3.org/2000/svg">
<path d="M14 25.6693C12.3862 25.6693 10.8695 25.3628 9.45004 24.7499C8.0306 24.1371 6.79587 23.306 5.74587 22.2568C4.69587 21.2068 3.86482 19.972 3.25271 18.5526C2.6406 17.1332 2.33415 15.6165 2.33337 14.0026C2.33337 12.3887 2.63982 10.872 3.25271 9.45261C3.8656 8.03316 4.69665 6.79844 5.74587 5.74844C6.79587 4.69844 8.0306 3.86738 9.45004 3.25527C10.8695 2.64316 12.3862 2.33672 14 2.33594C15.6139 2.33594 17.1306 2.64238 18.55 3.25527C19.9695 3.86816 21.2042 4.69922 22.2542 5.74844C23.3042 6.79844 24.1357 8.03316 24.7485 9.45261C25.3614 10.872 25.6675 12.3887 25.6667 14.0026C25.6667 15.6165 25.3603 17.1332 24.7474 18.5526C24.1345 19.972 23.3034 21.2068 22.2542 22.2568C21.2042 23.3068 19.9695 24.1382 18.55 24.7511C17.1306 25.364 15.6139 25.67 14 25.6693ZM14.2334 15.1693L13.1834 16.2193C12.9695 16.4332 12.8625 16.7054 12.8625 17.0359C12.8625 17.3665 12.9695 17.6387 13.1834 17.8526C13.3973 18.0665 13.6695 18.1734 14 18.1734C14.3306 18.1734 14.6028 18.0665 14.8167 17.8526L17.85 14.8193C18.0834 14.5859 18.2 14.3137 18.2 14.0026C18.2 13.6915 18.0834 13.4193 17.85 13.1859L14.8167 10.1526C14.6028 9.93872 14.3306 9.83177 14 9.83177C13.6695 9.83177 13.3973 9.93872 13.1834 10.1526C12.9695 10.3665 12.8625 10.6387 12.8625 10.9693C12.8625 11.2998 12.9695 11.5721 13.1834 11.7859L14.2334 12.8359H10.5C10.1695 12.8359 9.89221 12.9479 9.66821 13.1719C9.44421 13.3959 9.3326 13.6728 9.33337 14.0026C9.33337 14.3332 9.44537 14.6104 9.66937 14.8344C9.89337 15.0584 10.1703 15.17 10.5 15.1693H14.2334Z" fill="#00C756"/>
</svg>
