<svg width="16" height="16" viewBox="0 0 16 16" fill="none" xmlns="http://www.w3.org/2000/svg">
<path d="M7.9999 15.9998C7.71657 15.9998 7.4789 15.9038 7.2869 15.7118C7.0949 15.5198 6.99924 15.2825 6.9999 14.9998V3.8248L2.1249 8.6998C1.9249 8.8998 1.68724 8.9998 1.4119 8.9998C1.13657 8.9998 0.899235 8.8998 0.699902 8.6998C0.499902 8.4998 0.399902 8.26647 0.399902 7.9998C0.399902 7.73314 0.499902 7.4998 0.699902 7.2998L7.2999 0.699804C7.3999 0.599804 7.50824 0.529138 7.6249 0.487804C7.74157 0.446471 7.86657 0.425471 7.9999 0.424805C8.13324 0.424805 8.26257 0.445804 8.3879 0.487804C8.51324 0.529804 8.61724 0.600471 8.6999 0.699804L15.2999 7.2998C15.4999 7.4998 15.5999 7.73314 15.5999 7.9998C15.5999 8.26647 15.4999 8.4998 15.2999 8.6998C15.0999 8.8998 14.8622 8.9998 14.5869 8.9998C14.3116 8.9998 14.0742 8.8998 13.8749 8.6998L8.9999 3.8248V14.9998C8.9999 15.2831 8.9039 15.5208 8.7119 15.7128C8.5199 15.9048 8.28257 16.0005 7.9999 15.9998Z" fill="white"/>
</svg>
