<svg width="63" height="56" viewBox="0 0 63 56" fill="none" xmlns="http://www.w3.org/2000/svg">
<path d="M6.50001 55.75C4.78126 55.75 3.30938 55.211 2.08438 54.133C0.85938 53.055 0.247922 51.7607 0.250005 50.25V17.25C0.250005 15.7375 0.862505 14.4422 2.08751 13.3643C3.31251 12.2863 4.78334 11.7482 6.50001 11.75H16.3438L22.125 6.25H40.875V14.5C42.5938 14.5 44.0656 15.039 45.2906 16.117C46.5156 17.195 47.1271 18.4893 47.125 20H62.75V50.25C62.75 51.7625 62.1375 53.0578 60.9125 54.1357C59.6875 55.2137 58.2167 55.7518 56.5 55.75H6.50001ZM31.5 46.125C35.4063 46.125 38.7271 44.9214 41.4625 42.5143C44.1979 40.1071 45.5646 37.1857 45.5625 33.75C45.5625 30.3125 44.1948 27.3902 41.4594 24.983C38.724 22.5758 35.4042 21.3732 31.5 21.375C27.5938 21.375 24.2729 22.5786 21.5375 24.9857C18.8021 27.3929 17.4354 30.3143 17.4375 33.75C17.4375 37.1875 18.8052 40.1098 21.5406 42.517C24.276 44.9242 27.5958 46.1268 31.5 46.125ZM31.5 40.625C29.3125 40.625 27.4635 39.9604 25.9531 38.6312C24.4427 37.3021 23.6875 35.675 23.6875 33.75C23.6875 31.825 24.4427 30.1979 25.9531 28.8688C27.4635 27.5396 29.3125 26.875 31.5 26.875C33.6875 26.875 35.5365 27.5396 37.0469 28.8688C38.5573 30.1979 39.3125 31.825 39.3125 33.75C39.3125 35.675 38.5573 37.3021 37.0469 38.6312C35.5365 39.9604 33.6875 40.625 31.5 40.625ZM58.5313 17.25C58.5313 13.675 57.125 10.65 54.3125 8.175C51.5 5.7 48.0625 4.4625 44 4.4625V0.75C49.2083 0.75 53.6354 2.35417 57.2813 5.5625C60.9271 8.77083 62.75 12.6667 62.75 17.25H58.5313ZM50.25 17.25C50.25 15.7375 49.6375 14.4422 48.4125 13.3643C47.1875 12.2863 45.7167 11.7482 44 11.75V8.0375C46.8646 8.0375 49.299 8.93125 51.3031 10.7188C53.3073 12.5063 54.3625 14.6833 54.4688 17.25H50.25Z" fill="#00C756"/>
</svg>
