<svg width="19" height="19" viewBox="0 0 19 19" fill="none" xmlns="http://www.w3.org/2000/svg">
<g clip-path="url(#clip0_118_858)">
<path d="M12.3499 9.49988C12.3499 10.2558 12.0496 10.9807 11.5151 11.5151C10.9807 12.0496 10.2558 12.3499 9.49988 12.3499C8.74402 12.3499 8.01911 12.0496 7.48463 11.5151C6.95015 10.9807 6.64988 10.2558 6.64988 9.49988C6.64988 9.33743 6.66698 9.17878 6.69643 9.02488H5.69988V12.822C5.69988 13.0861 5.91363 13.2999 6.17773 13.2999H12.823C12.9496 13.2996 13.0709 13.2492 13.1603 13.1596C13.2497 13.07 13.2999 12.9486 13.2999 12.822V9.02488H12.3033C12.3328 9.17878 12.3499 9.33743 12.3499 9.49988ZM9.49988 11.3999C9.74946 11.3998 9.99658 11.3506 10.2271 11.255C10.4577 11.1595 10.6672 11.0194 10.8436 10.8429C11.02 10.6664 11.16 10.4568 11.2554 10.2262C11.3509 9.99565 11.3999 9.74851 11.3999 9.49893C11.3998 9.24936 11.3506 9.00224 11.255 8.77169C11.1595 8.54114 11.0194 8.33167 10.8429 8.15523C10.6664 7.9788 10.4568 7.83887 10.2262 7.74342C9.99565 7.64797 9.74851 7.59887 9.49893 7.59893C8.9949 7.59906 8.51155 7.79941 8.15523 8.15591C7.79891 8.5124 7.59881 8.99585 7.59893 9.49988C7.59906 10.0039 7.79941 10.4873 8.15591 10.8436C8.5124 11.1999 8.99585 11.4 9.49988 11.3999ZM11.7799 7.50488H12.9189C12.9946 7.50488 13.0672 7.47489 13.1208 7.42147C13.1744 7.36805 13.2046 7.29556 13.2049 7.21988V6.08083C13.2049 6.00499 13.1748 5.93226 13.1211 5.87864C13.0675 5.82501 12.9948 5.79488 12.9189 5.79488H11.7799C11.704 5.79488 11.6313 5.82501 11.5777 5.87864C11.5241 5.93226 11.4939 6.00499 11.4939 6.08083V7.21988C11.4949 7.37663 11.6231 7.50488 11.7799 7.50488ZM9.49988 0.379883C7.08111 0.379883 4.7614 1.34074 3.05107 3.05107C1.34074 4.7614 0.379883 7.08111 0.379883 9.49988C0.379883 11.9187 1.34074 14.2384 3.05107 15.9487C4.7614 17.659 7.08111 18.6199 9.49988 18.6199C10.6975 18.6199 11.8835 18.384 12.99 17.9257C14.0964 17.4673 15.1018 16.7956 15.9487 15.9487C16.7956 15.1018 17.4673 14.0964 17.9257 12.99C18.384 11.8835 18.6199 10.6975 18.6199 9.49988C18.6199 8.30223 18.384 7.1163 17.9257 6.00981C17.4673 4.90332 16.7956 3.89794 15.9487 3.05107C15.1018 2.2042 14.0964 1.53242 12.99 1.0741C11.8835 0.615779 10.6975 0.379883 9.49988 0.379883ZM14.2499 13.1944C14.2499 13.7749 13.7749 14.2499 13.1944 14.2499H5.80533C5.22488 14.2499 4.74988 13.7749 4.74988 13.1944V5.80533C4.74988 5.22488 5.22488 4.74988 5.80533 4.74988H13.1944C13.7749 4.74988 14.2499 5.22488 14.2499 5.80533V13.1944Z" fill="white"/>
</g>
<defs>
<clipPath id="clip0_118_858">
<rect width="19" height="19" fill="white"/>
</clipPath>
</defs>
</svg>
