<svg width="18" height="18" viewBox="0 0 18 18" fill="none" xmlns="http://www.w3.org/2000/svg">
<path d="M17.8594 16.4883C18.0703 16.6758 18.0703 16.875 17.8594 17.0859L17.0859 17.8594C16.875 18.0703 16.6758 18.0703 16.4883 17.8594L12.2344 13.6055C12.1406 13.5117 12.0938 13.418 12.0938 13.3242V12.832C10.7109 14.0273 9.11719 14.625 7.3125 14.625C5.29688 14.625 3.57422 13.9102 2.14453 12.4805C0.714844 11.0508 0 9.32812 0 7.3125C0 5.29688 0.714844 3.57422 2.14453 2.14453C3.57422 0.714844 5.29688 0 7.3125 0C9.32812 0 11.0508 0.714844 12.4805 2.14453C13.9102 3.57422 14.625 5.29688 14.625 7.3125C14.625 9.11719 14.0273 10.7109 12.832 12.0938H13.3242C13.4414 12.0938 13.5352 12.1406 13.6055 12.2344L17.8594 16.4883ZM3.33984 11.2852C3.33984 11.2852 3.61523 11.5605 4.16602 12.1113C4.7168 12.6621 5.76562 12.9375 7.3125 12.9375C8.85938 12.9375 10.1836 12.3867 11.2852 11.2852C12.3867 10.1836 12.9375 8.85938 12.9375 7.3125C12.9375 5.76562 12.3867 4.44141 11.2852 3.33984C10.1836 2.23828 8.85938 1.6875 7.3125 1.6875C5.76562 1.6875 4.44141 2.23828 3.33984 3.33984C2.23828 4.44141 1.6875 5.76562 1.6875 7.3125C1.6875 8.85938 2.23828 10.1836 3.33984 11.2852Z" fill="#081E46"/>
</svg>
