<svg width="11" height="12" viewBox="0 0 11 12" fill="none" xmlns="http://www.w3.org/2000/svg">
<path fill-rule="evenodd" clip-rule="evenodd" d="M7.96563 11.5725C7.18563 11.5438 4.97508 11.2383 2.66 8.92379C0.345459 6.6087 0.0405009 4.3987 0.0112509 3.61816C-0.0320825 2.42866 0.879001 1.27328 1.93146 0.822076C2.0582 0.76735 2.19698 0.746514 2.3342 0.761613C2.47142 0.776712 2.60236 0.827227 2.71417 0.908201C3.58083 1.53978 4.17883 2.49528 4.69233 3.24658C4.80532 3.41164 4.85362 3.6125 4.82805 3.81088C4.80248 4.00927 4.70482 4.19131 4.55367 4.32233L3.49688 5.1072C3.44582 5.14407 3.40988 5.19822 3.39573 5.25958C3.38159 5.32095 3.3902 5.38537 3.41996 5.44087C3.65938 5.87583 4.08513 6.52366 4.57263 7.01116C5.06067 7.49866 5.73883 7.95258 6.20413 8.21908C6.26247 8.25183 6.33113 8.26098 6.39601 8.24466C6.4609 8.22834 6.51706 8.18778 6.55296 8.13133L7.24088 7.08429C7.36735 6.91629 7.55392 6.80374 7.76151 6.77022C7.96911 6.7367 8.18162 6.7848 8.35454 6.90445C9.11667 7.43204 10.0061 8.01974 10.6572 8.85337C10.7447 8.96598 10.8004 9.10005 10.8184 9.24155C10.8364 9.38305 10.8161 9.52679 10.7595 9.65774C10.3062 10.7156 9.15892 11.6164 7.96563 11.5725Z" fill="#00C756"/>
</svg>
