<svg width="38" height="64" viewBox="0 0 38 64" fill="none" xmlns="http://www.w3.org/2000/svg">
<path d="M37.0792 31.2209L36.9392 30.6967L36.4149 30.5569C35.5534 30.327 34.6638 30.2105 33.7704 30.2105C31.0435 30.2105 28.4802 31.272 26.5529 33.1993C24.1149 35.6373 23.0803 39.1667 23.7844 42.5257L21.5629 44.7472V32.2772H23.476C26.0784 32.2772 28.1957 30.16 28.1957 27.5576V19.4434H29.5632V11.2568H26.2637V2.57608C26.2637 1.16007 25.1117 0.00805664 23.6957 0.00805664C22.2797 0.00805664 21.1276 1.16007 21.1276 2.57608V11.2568H16.8733V2.57608C16.8733 1.16007 15.7213 0.00805664 14.3053 0.00805664C12.8893 0.00805664 11.7373 1.16007 11.7373 2.57608V11.2568H8.43777V19.4435H9.80528V27.5577C9.80528 30.1601 11.9226 32.2774 14.525 32.2774H16.4378V50.7893L14.0536 48.405C14.7577 45.046 13.7231 41.5166 11.285 39.0786C9.35778 37.1512 6.7945 36.0898 4.06747 36.0898C3.17422 36.0898 2.28433 36.2063 1.42295 36.4362L0.898694 36.576L0.758817 37.1003C-0.179192 40.6156 0.833317 44.3945 3.40122 46.9624C5.32849 48.8897 7.89164 49.9512 10.6187 49.9512C11.3282 49.9512 12.0352 49.8764 12.7277 49.731L16.4377 53.4411V62.1172H11.9696V63.9922H16.4378H21.5629H26.0311V62.1172H21.5629V47.3989L25.1102 43.8516C25.8028 43.997 26.5097 44.0717 27.2193 44.0717C29.9462 44.0717 32.5095 43.0102 34.4368 41.083C37.0047 38.5151 38.0172 34.7361 37.0792 31.2209ZM10.6189 48.076H10.6188C8.39252 48.076 6.30025 47.2095 4.72711 45.6364C3.04584 43.955 2.18233 41.6371 2.30121 39.3042L11.0607 48.0637C10.9137 48.0714 10.7664 48.076 10.6189 48.076ZM12.3851 46.7365L3.6256 37.9771C3.7726 37.9693 3.91997 37.9647 4.06735 37.9647C6.29362 37.9647 8.38589 38.8311 9.95916 40.4043C11.6407 42.0858 12.5042 44.4036 12.3851 46.7365ZM23.0025 2.57608C23.0025 2.19395 23.3134 1.88307 23.6955 1.88307C24.0777 1.88307 24.3885 2.19395 24.3885 2.57608V11.2568H23.0025V2.57608ZM13.6122 2.57608C13.6122 2.19395 13.9231 1.88307 14.3052 1.88307C14.6873 1.88307 14.9982 2.19395 14.9982 2.57608V11.2568H13.6122V2.57608ZM10.3125 17.5685V13.1318H27.6882V17.5685H10.3125ZM19.6879 62.117H18.3129V32.2774H19.6879V62.117ZM14.5247 30.4024C12.9562 30.4024 11.68 29.1263 11.68 27.5577V19.4435H26.3207V27.5577C26.3207 29.1262 25.0447 30.4024 23.476 30.4024H14.5247ZM27.8787 34.525C29.4518 32.9519 31.5442 32.0854 33.7704 32.0854C33.9179 32.0854 34.0653 32.09 34.2123 32.0977L25.4528 40.8572C25.3338 38.5243 26.1973 36.2065 27.8787 34.525ZM33.1109 39.7572C31.5377 41.3303 29.4453 42.1968 27.2192 42.1968C27.0717 42.1968 26.9244 42.1922 26.7773 42.1845L35.5368 33.425C35.6559 35.758 34.7924 38.0758 33.1109 39.7572Z" fill="white"/>
</svg>
