<svg width="64" height="64" viewBox="0 0 64 64" fill="none" xmlns="http://www.w3.org/2000/svg">
<path d="M54.8649 11.9683C57.5 14.5957 59.5899 17.718 61.0146 21.1557C62.4392 24.5934 63.1706 28.2787 63.1666 31.9999C63.1666 39.8199 59.9932 46.9032 54.8649 52.0316L50.8699 48.0366C52.982 45.9358 54.6557 43.4364 55.7938 40.6834C56.932 37.9305 57.5119 34.9788 57.4999 31.9999C57.4999 25.7383 54.9783 20.0433 50.8699 15.9633L54.8649 11.9683ZM46.8466 19.9866C48.4281 21.5618 49.6829 23.434 50.5386 25.4957C51.3944 27.5573 51.8344 29.7677 51.8333 31.9999C51.8333 36.6749 49.9349 40.9249 46.8466 44.0133L42.8516 40.0183C43.905 38.9659 44.7401 37.7158 45.309 36.3398C45.8778 34.9638 46.1693 33.4889 46.1666 31.9999C46.1666 28.8549 44.8916 26.0216 42.8516 23.9816L46.8466 19.9866ZM34.8333 26.3333C36.3361 26.3333 37.7775 26.9303 38.8402 27.993C39.9029 29.0557 40.4999 30.497 40.4999 31.9999C40.4999 33.5028 39.9029 34.9441 38.8402 36.0069C37.7775 37.0696 36.3361 37.6666 34.8333 37.6666C33.3304 37.6666 31.889 37.0696 30.8263 36.0069C29.7636 34.9441 29.1666 33.5028 29.1666 31.9999C29.1666 30.497 29.7636 29.0557 30.8263 27.993C31.889 26.9303 33.3304 26.3333 34.8333 26.3333ZM30.5833 0.833252C32.4619 0.833252 34.2635 1.57953 35.5919 2.90791C36.9203 4.23629 37.6666 6.03797 37.6666 7.91659V20.6666H31.9999V9.33325H6.49992V51.8333H31.9999V43.3333H37.6666V56.0833C37.6666 57.9619 36.9203 59.7635 35.5919 61.0919C34.2635 62.4203 32.4619 63.1666 30.5833 63.1666H7.91659C6.03797 63.1666 4.23629 62.4203 2.90791 61.0919C1.57953 59.7635 0.833252 57.9619 0.833252 56.0833V7.91659C0.833252 6.03797 1.57953 4.23629 2.90791 2.90791C4.23629 1.57953 6.03797 0.833252 7.91659 0.833252H30.5833Z" fill="#00C756"/>
</svg>
