<svg width="15" height="15" viewBox="0 0 15 15" fill="none" xmlns="http://www.w3.org/2000/svg">
<path d="M7.50004 11.9904L3.86879 14.1779C3.70838 14.28 3.54067 14.3238 3.36567 14.3092C3.19067 14.2946 3.03754 14.2363 2.90629 14.1342C2.77504 14.0321 2.67296 13.9043 2.60004 13.7509C2.52713 13.5975 2.51254 13.4263 2.55629 13.2373L3.51879 9.10293L0.303169 6.32481C0.157335 6.19355 0.0663353 6.04393 0.0301687 5.87593C-0.005998 5.70793 0.00479361 5.54401 0.0625436 5.38418C0.120877 5.22376 0.208377 5.09251 0.325044 4.99043C0.44171 4.88835 0.602127 4.82272 0.806293 4.79356L5.05004 4.42168L6.69067 0.52793C6.76359 0.35293 6.87675 0.22168 7.03017 0.13418C7.18359 0.0466798 7.34021 0.00292969 7.50004 0.00292969C7.66046 0.00292969 7.81709 0.0466798 7.96992 0.13418C8.12275 0.22168 8.23592 0.35293 8.30942 0.52793L9.95004 4.42168L14.1938 4.79356C14.398 4.82272 14.5584 4.88835 14.675 4.99043C14.7917 5.09251 14.8792 5.22376 14.9375 5.38418C14.9959 5.5446 15.007 5.70881 14.9708 5.8768C14.9346 6.04481 14.8433 6.19414 14.6969 6.32481L11.4813 9.10293L12.4438 13.2373C12.4875 13.4269 12.473 13.5984 12.4 13.7518C12.3271 13.9052 12.225 14.0327 12.0938 14.1342C11.9625 14.2363 11.8094 14.2946 11.6344 14.3092C11.4594 14.3238 11.2917 14.28 11.1313 14.1779L7.50004 11.9904Z" fill="#00C756"/>
</svg>
