<svg width="20" height="20" viewBox="0 0 20 20" fill="none" xmlns="http://www.w3.org/2000/svg">
<path d="M10.0008 1.66699C14.6033 1.66699 18.3342 5.39783 18.3342 10.0003C18.3342 14.6028 14.6033 18.3337 10.0008 18.3337C8.52814 18.336 7.08137 17.9463 5.80916 17.2045L1.67083 18.3337L2.79749 14.1937C2.05507 12.9211 1.66503 11.4737 1.66749 10.0003C1.66749 5.39783 5.39833 1.66699 10.0008 1.66699ZM7.16083 6.08366L6.99416 6.09033C6.88626 6.0969 6.78081 6.12524 6.68416 6.17366C6.59376 6.22485 6.51124 6.28885 6.43916 6.36366C6.33916 6.45783 6.28249 6.53949 6.22166 6.61866C5.91343 7.01941 5.74747 7.51142 5.74999 8.01699C5.75166 8.42533 5.85833 8.82283 6.02499 9.19449C6.36583 9.94616 6.92666 10.742 7.66666 11.4795C7.84499 11.657 8.01999 11.8353 8.20833 12.0012C9.12782 12.8107 10.2235 13.3945 11.4083 13.7062L11.8817 13.7787C12.0358 13.787 12.19 13.7753 12.345 13.7678C12.5877 13.7553 12.8247 13.6896 13.0392 13.5753C13.1483 13.5191 13.2548 13.4579 13.3583 13.392C13.3583 13.392 13.3942 13.3687 13.4625 13.317C13.575 13.2337 13.6442 13.1745 13.7375 13.077C13.8067 13.0053 13.8667 12.9212 13.9125 12.8253C13.9775 12.6895 14.0425 12.4303 14.0692 12.2145C14.0892 12.0495 14.0833 11.9595 14.0808 11.9037C14.0775 11.8145 14.0033 11.722 13.9225 11.6828L13.4375 11.4653C13.4375 11.4653 12.7125 11.1495 12.2692 10.9478C12.2228 10.9276 12.1731 10.916 12.1225 10.9137C12.0655 10.9078 12.0079 10.9142 11.9535 10.9325C11.8992 10.9507 11.8494 10.9804 11.8075 11.0195C11.8033 11.0178 11.7475 11.0653 11.145 11.7953C11.1104 11.8418 11.0628 11.8769 11.0082 11.8962C10.9535 11.9155 10.8944 11.9181 10.8383 11.9037C10.784 11.8891 10.7309 11.8707 10.6792 11.8487C10.5758 11.8053 10.54 11.7887 10.4692 11.7587C9.99088 11.5499 9.54806 11.268 9.15666 10.9228C9.05166 10.8312 8.95416 10.7312 8.85416 10.6345C8.52631 10.3205 8.24059 9.96533 8.00416 9.57783L7.95499 9.49866C7.91968 9.44546 7.89113 9.38808 7.86999 9.32783C7.83833 9.20533 7.92083 9.10699 7.92083 9.10699C7.92083 9.10699 8.12333 8.88532 8.21749 8.76533C8.30916 8.64866 8.38666 8.53533 8.43666 8.45449C8.53499 8.29616 8.56583 8.13366 8.51416 8.00783C8.28083 7.43783 8.03916 6.87033 7.79083 6.30699C7.74166 6.19533 7.59583 6.11533 7.46333 6.09949C7.41833 6.09449 7.37332 6.08949 7.32832 6.08616C7.21641 6.0806 7.10427 6.08171 6.99249 6.08949L7.15999 6.08283L7.16083 6.08366Z" fill="white"/>
</svg>
